<?xml version="1.0" encoding="utf-8"?>
<!-- Generator: Adobe Illustrator 20.0.0, SVG Export Plug-In . SVG Version: 6.00 Build 0)  -->
<svg version="1.1" id="Layer_1" xmlns="http://www.w3.org/2000/svg" xmlns:xlink="http://www.w3.org/1999/xlink" x="0px" y="0px"
	 viewBox="0 0 1490.9 706.5" style="enable-background:new 0 0 1490.9 706.5;" xml:space="preserve">
<style type="text/css">
	.st0{fill:#0071BC;}
	.st1{fill:#FFFFFF;}
</style>
<g id="XMLID_2_">
	<g>
		<path class="st0" d="M1464.6,598.6c1.7-0.1,3.9-1.6,5.3-0.3c-1,2.4-2.8,4.7-5.3,5.9c-1.2,0.5-2.7,0.3-3.9,0.8
			c-2.3,1-3.5,3.4-5.6,5c-1.9,1.6-4.4,2.9-6.4,4.2c-1.9,1.2-4.6,3.8-7,2c0.2-3.3,3.7-3.2,4.5-5.9c0-2-1.7-2.2-1.7-4.2
			c3.9-3.4,9.9-5.8,10.9-12.8c0.4-3.1-2.1-9.8,1.7-10c4.4-0.3,1.9,4.5,2.2,7c0.1,1,1.2,1.7,1.7,3.1
			C1461.9,595.8,1461.8,598,1464.6,598.6z"/>
		<path class="st0" d="M1437.6,615.3c-1.6,4.7-8.3,7.1-12.8,10c-1.4,0.9-2.5,3-4.2,3.6c-2.2,0.9-4.6,0.6-7,1.7
			c-3.7,1.7-6.4,5.1-9.8,7.3c-3.2,2.1-8,5-11.7,5.3c-4.1,0.3-11.7-2.3-6.7-6.1c2.2-1.6,6.8-3.6,9.2-4.7c7.9-4,19.1-6.7,25.6-11.4
			c3.7-2.7,7.1-5.6,10.6-7.8C1432.7,612,1435.6,615,1437.6,615.3z"/>
		<path class="st0" d="M1389.4,428.8c0.9-0.2,0.9,0.4,1.4,0.6c-0.3,4-2.7,6.6-7.8,6.1c-2.3-0.2-6.2-1.9-6.4-3.1
			C1376,428.5,1386.8,430.9,1389.4,428.8z"/>
		<path class="st0" d="M1375.7,447.8c2,0.6,11,6.9,8.1,9.8c-1.6,1.6-3.6-0.8-6.1-1.4c-3.4-0.8-6,0.2-8.4-1.7
			c-2.6-2.1-3.3-6.6-6.1-9.2c-1.4-1.3-5.2-3.1-7.8-2.8c-4.4,0.5-4.4,5.6-8.4,7.8c-3.8-0.4-6.1,0.7-8.9-0.3c-3-1-4.5-4.9-7.3-5.3
			c-2.8-0.4-9.5,4.6-10.6,0.3c-0.8-3.5,4.7-4.6,5-7c0.4-2.4-2.2-6.2-3.3-7.3c-1.2-1.1-2.8-1.1-4.2-2c-1.4-0.9-2.5-2.5-4.2-3.4
			c-5.8-3-14.8-1.8-17-6.7c-0.4-0.9,0.2-1.8-0.3-3.1c-0.6-1.5-2.9-2-3.6-3.4c-2-3.4-0.6-8.4,2.8-8.9c3-0.5,9.1,3.3,9.8,5.6
			c0.4,1.2-0.3,2.5,0,3.9c0.3,1.6,2.8,5.7,5,5.8c2.9,0.2,4.6-4.2,7.2-5.8c1.8-1.1,4.8-2.4,7.3-2.2c2.4,0.2,4,2,6.7,3.1
			c2,0.7,4.4,1,6.7,1.7c2,0.6,3.8,1.8,5.9,2.5c6.6,2.4,14.5,3.8,18.1,8.1c1,1.2,1,2.9,2.2,4.2c1.2,1.2,7.6,2.4,7.8,5
			c0.1,2-2.7,2.1-2.8,4.2C1369,443.5,1374.7,443.2,1375.7,447.8z"/>
		<path class="st0" d="M1380.7,533.9c0.6,2.8-1.5,4.7-2,7c-0.6,2.8,0,6.3-1.1,9.2c-1.3,3.4-4.5,6.6-7,10.9c-2,3.5-4.8,7.4-7.8,9.8
			c-1.8,1.4-3.9,2.2-5.6,3.6c-2.7,2.2-4.9,5-7.2,7.5c-2.5,2.7-5.6,4.7-7.5,7c-2.9,3.3-4.3,8.7-9.2,9.2c-2.9,0.3-5.4,0.1-8.1,1.1
			c-4.1,1.6-6.9,4.7-8.9,4.7c-2.2,0.1-4.1-2.5-6.1-2.8c-2.2-0.3-4,1.7-7.3,1.7c-1.3,0-2-0.8-3.9-1.4c-4-1.3-8.4-1.2-8.9-5.6
			c-0.3-2.4,1.5-3.4,1.4-5.6c-0.1-2.1-2.2-2.7-3.1-4.5c0.5-1.9,0.6-4.3-1.4-5.6c-0.1-1.7,0.4-3,1.1-3.9c-1.6,0.7-3.7,1.1-5.6,2.2
			c-2,1.2-3.5,4-5.8,3.6c-2.2-0.8-0.5-3-0.8-4.7c-0.2-1.4-3.3-7.1-4.7-8.1c-1.6-1.1-7.5-3.3-9.5-3.6c-8.6-1.3-14.1,3.3-20.9,3.9
			c-1.7,0.2-3.7-0.3-5.3,0c-5.6,1-11.8,5.4-15.3,8.4c-5.8,0.6-11.6-1.2-17.6,0.6c-5.9,1.7-9.3,6.7-18.4,5.3c-1.8-1.5-5-2.3-5-5
			c0-2.1,3.2-3.5,4.2-5c1.1-1.6,3-5.5,3.1-7.8c0.1-1.9-1.2-4.1-1.1-6.4c0.1-1.8,1.1-3.8,1.1-5.6c0-2.5-1.6-4.6-2-7.2
			c-0.1-0.9,0.1-2.2,0-3.4c-0.2-1.7-1-3.2-0.8-4.2c0.4-1.8,2.5-2,3.1-3.6c0.9-2.6-1.1-3-1.1-6.1c0-2.2,1.7-3.3,2.8-6.1
			c0.5-1.3,0.5-3.8,1.1-4.7c0.7-1.2,3.8-2.2,5-2.8c4.3-2.1,7.7-6,12-6.7c1.1-0.2,2.6,0.1,3.3,0c2.5-0.4,5.7-2.6,9.2-3.4
			c3.4-0.8,6.4-0.5,8.9-2c2.8-1.6,6.8-5.8,7.8-8.4c1.3-3.1,0.9-5.7,3.3-6.7c1.2-0.5,2.4,0,3.6-0.3c1.3-0.3,4.1-1.7,5-2.5
			c1.9-1.7,2.3-4.6,4.5-6.4c1.5-1.3,4.4-3.2,6.4-4.2c1.2-0.6,3.4-1.2,4.5-1.1c3.9,0.3,5.8,5.8,10,4.7c1.5-0.4,3.1-3.6,4.5-5.6
			c2-2.8,3.5-6.7,7-7.5c2.8-0.7,6,1.1,7.5-1.4c0.3-1.8-1.3-2.8,0-3.9c3.2,0.2,8.7,4.6,13.7,4.7c2.6,0.1,7.6-2.9,8.1,1.1
			c0.2,1.8-2,3.2-2.5,5c-0.4,1.3,0.6,2-0.3,3.3c-2.3,0.9-4.7,1.4-4.7,3.9c-0.1,3.2,4.5,4.7,7.3,6.4c1.9,1.2,3.5,3,4.5,3.6
			c0.9,0.5,2.2,0.7,2.8,1.1c1.8,1.2,3.1,3.8,5.6,3.9c2.8,0.1,5.7-3.5,7.2-7c1.9-4,2-8.9,2.8-13.1c0.3-1.4,1.3-2.8,1.7-4.2
			c1.1-3.8,2.5-9,5.9-10.3c3.3,3.5,4.5,10.4,3.9,16.2c2.2,1.7,6.1,1.1,6.7,5c0.2,1.4-0.7,3.1-0.6,4.5c0.2,2.3,1.9,4.4,2.2,6.4
			c0.6,3.7-0.6,6.8,1.1,9.5c2.2,3.4,6.4,3.3,9.2,7c-0.1,2.3,0.9,3.2,1.4,5c0.3,0.8,0,2.2,0.3,2.8c0.9,1.9,3.3,2.1,4.2,3.6
			c0.4,0.8,0.3,2.2,0.8,3.6c0.8,2,2.6,3.6,3.9,5.6C1378.3,530.3,1380.4,532.4,1380.7,533.9z"/>
		<path class="st0" d="M1343.1,63.3c8.4,0.1,18.3,3.6,17.6,11.4c-9.9,2.2-18.1-6.8-28.4-4.2c-1.6,0.4-3.5,2.2-3.3,3.9
			c0.4,4.9,12.6,4.4,13.7,9.2c-2,1.5-4.2,0.1-5.8,0.3c-2.5,0.3-6.8,3-8.4,4.5c-1.9,1.8-3.5,6.3-5.6,6.7c-2.5,0.5-6.3-2.5-10-1.7
			c-1.4,0.3-2.7,2-3.9,2.2c-3.1,0.6-7-1.7-8.9,2c1,2.5,0.4,6.1,2.5,7.5c1.4,0.9,3.1,0.2,4.7,0.8c2,0.7,3,3.1,4.7,4.5
			c1.4,1.1,2.9,1.1,3.6,2.5c0.2,2.1-0.8,2.3-0.6,3.6c0.4,2.3,4.1,2.9,4.2,4.5c0.1,2-2.3,1.6-2.8,3.6c-0.2,1.3,1.5,1.6,1.7,3.3
			c0.1,1.1-0.9,2.3-0.8,3.6c0.1,1.9,1.6,3.1,1.4,4.7c-0.2,1.4-1.4,2.5-2.5,3.1c-5.3-3.4-10.1-8.2-15.9-12.5
			c-5.9-4.5-15.2-10-16.2-19.5c0-1.5,3.1-2.6,3.6-4.7c0.2-0.9-0.4-2.1-0.3-3.3c0.2-3.3,2.9-6.4,2.8-8.4c-0.1-2.1-4.1-6.1-6.1-6.7
			c-1.6,0.9,0,2.5-0.3,3.9c-0.3,1.7-2.4,3.7-4.2,3.9c-5.3,0.5-5.9-6.8-14.2-4.7c-2.2,0.5-5.2,3.8-4.5,7.8c0.2,1.2,3.6,2.5,3.3,4.2
			c-0.2,1.6-7.6,2.1-9.2,1.9c-4.5-0.4-6.8-3.7-10.9-3.6c-2,0-3.7,1.7-5.3,2c-8.8,1.6-21.8-4.3-24.8,3.3c-0.4,1.1-0.2,2.5-0.6,3.6
			c-0.5,1.6-1.8,2.9-2.2,3.9c-0.3,0.9-0.3,2.6-0.8,3.9c-0.5,1.2-5.8,6-1.1,7.3c1.1,0.3,1.6-0.5,3.1-0.3c2.4,0.3,6.4,4.2,9.2,4.2
			c1.7,0,4-1.9,5.3-2c2.6-0.1,4.4,1.5,6.4,2.5c1.9,0.9,4.7,2.9,6.1,2.8c2.6-0.1,1.4-2,3.9-2.8c4.8,1.4,7.1,6.5,11.7,10.6
			c1.7,1.5,4.2,2.7,6.4,4.7c1.3,1.1,5.1,4.1,5.3,5.6c0.2,1.3-1.1,1.9-1.4,3.1c-0.5,1.7,0.6,2.9-0.6,4.2c-4.5-1.6-5.4-6-8.6-9.8
			c-1.2-1.4-2.4-3-4.2-5c-0.8-0.9-3.8-4-5.6-3.3c-3.5,1.3,1.9,6.6,2.8,7.8c1.9,2.5,4.3,5.8,4.5,8.4c0.1,1.7-1.1,4.7-1.1,7.5
			c0,1.9,0.5,3.7,0.3,5.3c-0.2,1.6-1.4,3.5-2,5.3c-0.7,2-0.8,4.5-1.4,5.9c-1.1,2.5-4.7,5.5-7.3,5.6c-2.3,0.1-3.3-1.8-5.6-1.7
			c-3.4,0.2-4.1,3.3-6.1,5.9c0.2,2.7,1,3.7,0.6,5.6c-0.8,3-4.9,3.5-4.7,6.4c0.1,2.7,3.8,3.3,5.6,4.5c2.5,1.7,6.8,5.3,9.2,8.4
			c1.6,2,3.8,5.7,3.6,7.8c-0.2,2.8-8.2,6.6-11.4,5.6c-3.1-1-2-3.9-2.8-6.7c-0.6-2.1-2.2-3-3.1-4.7c-0.4-0.9-0.2-2.3-0.8-3.3
			c-1.7-2.8-4.6-1.3-8.1-3.1c-2.3-1.2-1.6-3.6-2.5-5.9c-1.2-3-6.3-4.4-10.3-3.6c-3,0.6-3.9,3.1-6.7,3.6c-4.1-2.4,0.8-8.4-4.2-8.9
			c-3.8-0.4-6.4,5.5-8.6,7.3c-1.5,1.2-4.3,1.4-4.5,3.1c-0.3,3.1,3.3,2.4,6.1,3.6c2.6,1.1,2.9,4,5.3,4.2c2,0.1,3.3-2.1,5.3-2.2
			c3.4-0.3,6.2,1.2,8.4,2.5c-1.4,3.4-8.9,5.9-8.9,10.3c0,2.6,3,3,5.3,4.7c2,1.4,4.5,5.5,7.3,8.4c1.2,1.2,3.1,2,3.6,2.8
			c1.3,1.8,1.1,4.1,2.5,5.3c0.2,1.5-0.7,1.9-0.6,3.3c0.7,2,3.8,1.6,4.5,3.6c-0.6,4.8,1.4,9.3-2.5,11.2c-1.8,8.6-3.9,15.4-9.8,20.1
			c-5.3,4.2-12.3,5.5-18.7,7.5c-1.7,0.5-3,2.3-4.5,2.8c-3.7,1.3-10.3,0.5-10.6,5c-0.1,2.2,2.8,3.6,3.1,5.9c0.4,3.5-2.8,7-5,7.3
			c-1.6,0.2-5.1-1-5.3-3.9c-0.2-3.3,4.1-4.7,4.5-6.7c0.6-3.5-3.1-7-7.3-6.7c-3.7,0.3-12.1,7.7-12.3,11.7c-0.2,3,6,9.3,8.1,11.2
			c7.8,6.9,16.1,11,14.8,27.9c-2,4.3-7,5.2-10.9,7.5c-3,1.8-4.5,7.3-9.5,7.8c-2-0.7-0.8-3.8-1.4-5.3c-0.8-2-4.8-3-7.3-5
			c-2-1.7-2.9-4.3-4.5-5.9c-1.9-1.9-4.9-2.3-7.3-3.6c-1.5-0.8-2.7-3.7-4.2-3.6c-2.5,0.1-1.6,2.5-2.2,6.4c-0.6,3.9-3.4,6.9-2.5,11.4
			c0.4,1.9,2.7,3.4,3.9,5.3c1.9,3.2,2.2,6.8,4.2,8.6c1.3,1.2,3.5,1.5,5,2.5c2.9,2.1,8.2,6.7,9.2,9.2c1.2,2.9,0,6.4,0.8,9.5
			c0.9,3.6,5.6,6.1,2.8,9.8c-2.7-0.5-5-2.2-7.3-3.6c-3.8-2.4-5.6-4.4-8.1-8.4c-0.7-1.2-1.8-2.3-2.2-3.3c-1-2.5-0.8-5.3-1.7-8.4
			c-0.8-2.6-3.8-6.7-6.1-8.9c-2-1.8-5.4-2.9-5.6-5.6c-0.2-3.7,1.3-8.1,1.1-12.5c0-1-0.7-1.9-0.8-3.1c-0.3-2.1,0.2-4.8-0.3-6.7
			c-0.5-1.8-1.8-3.4-2.5-5c-0.7-1.6-1.5-3.2-2.2-5.3c-1.1-3.2-2.4-9.4-5-9.8c-2.8-0.3-5.6,5.2-9.2,5.3c-1.9,0-4.4-1.5-4.7-3.4
			c-0.3-1.7,0.9-3.4,0.8-5.3c-0.1-3.7-2.8-5.2-4.7-7.8c-0.8-1.1-1-2.6-1.7-3.3c-1.3-1.5-3.7-2.4-5.3-3.9c-1.5-1.5-3.2-3.6-3.9-5
			c-1.1-2.2-1.4-5-3.1-5.3c-1.6-0.3-3.4,2-5,2.5c-1.7,0.6-5.9,1.3-7.5,1.4c-5.6,0.4-10.1-1.1-9.5,5.6c-0.9,3-4,3-6.1,4.5
			c-2.7,1.8-4.6,5.5-7.5,8.4c-1.4,1.4-3.5,2.3-4.7,3.6c-1.1,1.1-1.4,2.9-2.5,3.9c-3,2.8-7.4,3-9.5,7c-0.1,4.6,2.2,8.1,1.7,12.5
			c-0.2,2-1.7,3.8-2,5.9c-0.2,1.8,0.7,3.7,0.3,5.6c-0.2,1-1.4,1.5-2.2,2.8c-0.8,1.1-1.1,2.6-1.7,3.3c-0.9,1.2-2.5,2-3.4,3.1
			c-1.4,1.7-1.7,2.9-3.1,3.1c-6.1,0.9-7.6-10.7-10.3-15.6c-1.2-2.2-3.8-4.3-5-7c-1.4-3.1-1.9-7-3.9-10.6c-1.7-3-4.1-6.1-5.3-9.2
			c-1-2.7-1.9-6-2.8-8.9c-1-3.1-2.1-7-2.2-9.5c-0.2-3.6,0.7-5.9-2.2-7.3c-2.7,0.6-3.9,3.3-7,3.3c-3,0-11-5.2-8.6-9.8
			c-1.9-2.8-6.9-4.3-10.6-7.5c-2.1-1.9-4.1-6.3-7.8-6.7c-1-0.1-2.4,0.5-3.3,0.6c-2.4,0.2-6.5-0.2-9.2,0c-3.3,0.3-7.5,1-11.7,0.6
			c-2.7-0.3-6.1-0.8-8.9-1.1c-3.6-0.4-8.3-1.2-10.3-3.1c-1.2-1.1-1.7-4.8-3.9-5.3c-2.6-0.6-4,1.4-6.4,2c-5.1,1.2-9.4-1-12.8-3.3
			c-2.4-1.6-4.7-2.5-6.4-3.6c-4.2-2.8-5-11.4-11.4-11.4c-2.2,0-5.8,1.4-6.1,3.9c-0.2,1.8,2.1,5.1,3.1,6.4c3.1,4.4,8.9,6.1,10.6,12
			c1.2,0.5,3.5-1,4.7,0.3c1.1,2.5,0,7.3,2.5,8.4c11.6,1.9,14.9-4.4,20.1-8.9c3,2,2,3.7,3.1,5.9c1.1,2.2,2.7,4,4.7,4.7
			c1.4,0.5,3.2,0,5.3,0.8c1.3,0.5,6.8,5.7,7,7.5c0.1,1.6-3.6,7.2-4.7,8.6c-1.1,1.4-2.8,2.1-3.3,3.3c-0.4,1-0.3,3-0.6,3.6
			c-0.5,1.1-3,2.6-4.5,3.9c-1.5,1.4-3.3,2.5-4.7,3.6c-1.8,1.4-2.9,3.2-4.7,3.9c-3.7,1.4-7.2,0.8-10.3,2.8c-2,1.3-2,4.3-4.5,5.9
			c-2.5,1.7-6.9,1.7-10.6,3.4c-2.4,1.1-3.8,3.2-5.9,3.9c-0.8,0.3-1.9,0-2.8,0.3c-1.9,0.5-3.6,1.8-5.3,2.2c-1.4,0.4-2.8,0.2-4.2,0.6
			c-4.3,1.2-8.2,5.6-12.5,3.1c-2-4.7-2.4-10.6-4.7-14.8c-1.2-2.1-3.6-2.8-4.5-5c-0.1-1.8,2-1.3,2.2-2.8c-0.7-3-3.6-4.4-5.3-7
			c-0.9-1.2-1.2-3-2.2-4.5c-3.3-4.8-9.9-7.3-11.2-13.4c-0.3-1.6,0.1-2.9-0.3-4.2c-0.5-2.1-1.9-4.2-3.4-5.9c-1.1-1.2-3.2-2.1-4.5-3.9
			c-0.8-1.2-1-2.9-1.7-4.2c-2.8-5.2-6.8-9.7-11.2-13.4c-2.3,0.3-4.7,0.5-5.9,2c1.1,3.6,2.9,6.7,4.7,9.8c1.7,2.8,4.1,5.8,5.3,8.9
			c0.4,1.2,0.4,2.7,0.8,3.9c1.8,4.4,7.3,5.8,8.4,10.9c0.7,3.4-0.2,5.8,0.8,9.2c1,3.3,5.8,5.2,7.8,8.4c1.6,2.6,1.6,6.2,2.8,8.6
			c1.7,3.6,6.3,5.1,9.8,7.5c3.1,2.2,5.3,5.5,7.8,7.8c1.5,1.4,3.5,1.6,3.9,3.1c0.5,1.9-0.8,2.5-1.1,4.2c2.1,2.2,4.2,6.4,7.8,6.7
			c1.5,0.1,3.3-1.3,5.6-1.7c1.1-0.2,2.4,0.2,3.3,0c1.5-0.3,2.8-1.6,4.5-2c2.9-0.6,6.2-0.4,9.8-0.8c3.4-0.4,5.7-3.3,8.4-2.5
			c2.9,3.1,0.8,6.7,0,9.8c-0.3,1.1-0.3,2.2-0.6,3.1c-1.5,5-5.4,8.6-7.3,13.1c-0.6,1.4-0.5,3-1.1,4.5c-2.1,4.5-6.4,8.9-9.8,12.5
			c-1.9,2.1-3.6,3.9-5.6,5.6c-2,1.6-4.4,2.5-6.7,4.2c-4.5,3.3-9.1,7.9-12.3,12.3c-1.2,1.7-1.8,3.6-3.1,5c-1.8,2-4.6,3-6.1,5
			c-1.2,1.6-2,4.4-3.3,7.3c-1.5,3.2-4.7,5.3-4.2,9.8c0.2,1.7,1.7,2.7,2.2,4.5c0.9,3,0.2,5.5-0.3,8.6c1.6,3.8,2.7,8.1,5.6,10.6
			c0.3,5.6-0.5,11.1,0,15.9c0.3,3,1.5,5.3,0.3,8.1c-1.1,2.5-5.1,6.8-7.5,8.4c-2.6,1.7-6.7,2.1-9.5,4.2c-2,1.4-3.6,3.9-5.6,5.6
			c-3.3,2.7-7.8,5.3-8.1,8.1c-0.2,1.6,1.3,4,1.7,5.6c1.1,4.1,2.1,10,0.3,14.5c-2,4.8-12.2,3.8-13.4,8.9c-0.3,1.5,0.7,2.8,0.6,4.5
			c-0.1,1.4-2,6.5-2.8,8.1c-1.2,2.3-4,3.3-5.9,5.3c-2.3,2.5-3.4,6-5.9,8.6c-3.3,3.5-7.7,7.3-12,10.3c-3.7,2.7-10.3,5.4-16.2,5.9
			c-3.4,0.2-7-0.8-10.6-0.3c-1.3,0.2-2.7,1.4-4.5,1.7c-1,0.2-2-0.2-3.1,0c-1.8,0.3-3.4,1.7-5,1.7c-3.6,0-8.3-4.4-8.4-8.6
			c0-1.6,1.4-3.2,1.4-4.7c0-1.8-2.2-4-3.9-7.3c-1.6-3.1-2.3-6.6-3.9-9.2c-1.7-2.7-4-4-5.3-6.1c-2.6-4.3-2.8-9.4-3.6-14.5
			c-0.3-1.7-1.4-3.5-1.7-5.6c-0.3-2.6,0.3-5.4-0.3-7.5c-0.5-1.6-2.3-3.3-3.4-5.3c-2-3.6-3.3-8.3-5-11.1c-1.6-2.6-4.7-5.4-5-8.4
			c-0.2-2,0.3-5.8,0.6-7.8c0.3-2,1.8-3.5,2.2-5.6c0.3-1.4-0.1-2.9,0.3-4.5c1.4-6.4,8.4-8.7,7.5-16.4c-0.4-3.3-2.7-4.9-3.1-8.6
			c-0.2-1.8,0.9-3.3,0.8-5c0-2.4-2-5.9-3.1-8.1c-2.8-6.2-4.6-11.8-8.6-16.4c-2.2-2.5-5.1-4.3-7-6.7c-1.5-1.9-3.3-5.5-3.4-7
			c0-1.6,1.2-2.6,1.7-4.2c0.6-2.1,0.6-5.9,1.4-9.2c0.4-1.5,2-5.1,1.7-7.5c-0.3-2.3-3.8-6.8-6.7-7.5c-3.9-1-7.9,1.2-12.8,0.8
			c-4.2-2.7-3.9-9.7-10-10.6c-8-1.2-16.2,2.1-21.7,4.5c-3.2,1.4-6.4,3.5-9.2,3.6c-2.6,0.1-5.3-1.4-7.8-1.7c-3.3-0.3-7.6,0-10.9,0.6
			c-3.2,0.6-6.1,2.9-8.9,3.1c-5.4,0.4-10.5-4.9-13.9-7.5c-2.1-1.6-4.2-2.9-6.1-4.5c-2.1-1.6-4.8-2.6-6.4-4.2
			c-2.2-2.1-2.2-5.8-3.3-8.6c-1.4-3.3-5.5-5.8-8.6-8.9c-2.4-2.4-7.8-5.9-8.4-8.9c-0.3-1.5,0.7-3.3,0.6-5c-0.1-2.4-2-3.8-2-5.6
			c0.1-2.5,2.9-4.3,3.6-6.4c0.4-1.1,0.2-2.5,0.6-3.9c0.8-2.8,2.7-4.5,2.2-8.6c-0.2-1.6-1.6-3.2-1.7-5.3c-0.1-1.5,1-2.3,0.8-3.6
			c-0.2-2.4-3.3-2.8-3.6-5.6c-0.3-2.8,2.7-5.2,4.5-8.4c0.8-1.4,1.2-3.6,2-4.7c1.6-2.4,4.1-3.5,5.3-5.9c0.9-1.7,1.2-4.3,1.9-5.6
			c1-1.7,3.1-2.6,5-4.7c1.6-1.8,2.2-3.9,3.3-4.7c1.4-1,3.5-1.3,5-2c5.2-2.4,8.9-5.4,11.4-10.3c-0.8-4.5,0.4-6.4,2.2-9.5
			c1.7-2.9,2.9-5.6,5.9-7.3c3.5-2,6.8-2.2,9.2-5.9c1.2-1.9,3-5,3.1-7c0-2.8-2.8-6.3-5.3-6.7c-2.5-0.4-6.4,1.9-7.8-0.8
			c-0.5-0.9,0.2-2.9,0-3.9c-0.3-1.8-1.9-3.1-2-4.5c-0.1-2.6,2.6-5.3,3.3-8.4c1-4.1,0-7.3-0.3-12c3.9-6.1,12.6-3.1,21.2-2.5
			c1.3,0.1,2.8-0.3,4.2-0.3c5.1,0.1,9.1,1.7,10.9-2.8c0.6-1.7,1.2-7.9,0.8-9.5c-0.5-1.9-4.1-6.7-5.9-7.8c-2.8-1.8-6.8-1-8.4-4.2
			c1.3-5.5,7.5-0.9,11.2-2.2c1.9-0.7,1.7-3.9,3.4-4.5c1.1-0.4,2.6,1.1,4.2,1.1c1.4,0,6.2-2.5,7.5-3.4c1.8-1.2,2.3-3.7,3.9-4.7
			c1.1-0.7,2.5-0.6,3.6-1.1c2.4-1,5.4-3.1,7-5c2.3-2.8,3.3-6.2,6.1-6.7c3.7-0.7,12.2,0.7,12.8-3.4c0.6-3.9-3.4-7-2-11.2
			c1.2-3.3,4.1-2.7,8.4-4.7c2,1.4,1.4,5.6,1.7,8.1c2.6,0,7.9-0.8,8.4-3.1c0.6-2.9-3.8-5.8-4.7-7.5c-1-1.9-1.3-5.2-3.3-5.6
			c-4.2-0.8-8.4,5.9-13.7,5.9c-3.5,0-7.2-2.7-8.1-5.3c-0.5-1.5,0-2.9-0.3-4.5c-0.3-2.3-1.7-4.6-1.1-7.8c2.1-3.7,7.1-4.3,10.6-6.1
			c1.3-0.7,2.4-2.2,3.9-2.8c2.5-0.9,6.2,0,8.6-1.4c1.5-0.9,1.1-2.4,2.2-4.2c0.7-1.1,2.4-1.8,3.3-3.1c0.7-0.9,0.7-2.2,1.4-3.1
			c2.4-3,6.8-4.1,8.6-7.2c0.8-1.4-1.4-1.9-0.8-3.9c0.9-1.9,4.4-0.5,6.4-0.8c2.8-0.4,5.3-3.8,8.4-4.5c3.2-0.7,6.5-0.3,9.5-1.4
			c1.8-0.7,3.4-2.3,5-2.5c0.6-0.1,2.2,0.3,3.1,0.3c1.1,0,2.2-0.7,3.6-0.8c2-0.2,4.6,0.5,7.3,0.6c4.4,0.1,8.6-1.3,12.3,0.3
			c1.9,0.8,1.7,3,4.2,3.9c1.2,0.5,2.9-0.2,4.7,0c2.7,0.3,5.6,2.1,9.2,2.5c1.3,0.1,2.6-0.2,3.9,0c4,0.5,8.4,2.6,12.3,3.9
			c3.3,1.1,10.2,2.5,10.3,5.6c0.2,3.7-6,4.7-8.6,4.7c-4.4,0-10.2-2.6-14.8-1.1c0.1,6.3,6.9,11.1,13.1,10.3c0.5-3-3.5-1.3-3.1-4.2
			c2.8-2.1,6.1,1.4,10,0.8c1.5-0.4,1.3-2.6,1.7-4.2c3.3-2,7.5-5,12.5-2.8c0.3-0.5,0.6-0.9,1.1-1.1c0.3-3.1-3.3-4.7-1.4-7.5
			c1-2,6.2-1.3,7,0.3c0.4,1.9-1.3,1.7-1.1,3.3c1,2.2,3.3,2.6,4.5,2.5c2.7-0.1,3.3-2.6,5.9-3.9c1-0.5,2.6-0.6,3.9-1.1
			c1.6-0.6,2.9-1.9,4.2-2.2c0.9-0.2,2.3,0,3.6-0.3c1.6-0.4,3.4-1.7,4.7-1.7c1.7,0,2.9,1.9,5,2.2c1.2,0.2,2.5-0.7,4.2-0.8
			c1.4-0.1,2.8,0.2,3.9,0c2.7-0.4,4.5-1.8,6.7-1.7c1.6,0.1,4.2,2.2,5.3,1.1c1.8-1.8-2.4-3.1-1.1-4.7c4.3,0.3,8.8,0.2,13.1,0.8
			c6.4,0.9,12.4,4.1,18.1,4.2c-0.5-3.9-5-2.8-7-4.5c-0.6-0.5-3.1-4.6-3.1-5.9c0-0.6,3.2-6,3.9-6.7c2.5-2.3,10.5-2.3,12.8,0.8
			c1.6,2.1,1.1,5.4,3.3,5.3c2-0.1,3-4.9,5.3-5c1.9-0.1,2.8,3.1,4.7,3.1c2.3,0,3.9-4.4,7-4.5c1.6-0.1,2.2,0.8,4.7,1.1
			c1.7-1.1-0.6-2.6,0.3-4.2c3.1-2.3,10.2-0.5,14.2-2c1.1-1.3-1.4-2.3-0.3-3.6c3.4-2.4,9.2-2.6,15.1-3.6c3.6-0.6,7-3.1,9.8-3.4
			c2.9-0.3,5.7,1.7,8.4,1.7c1.6,0,3.5-0.5,5-1.1c1.6-0.6,2.6-2.1,4.2-2.5c2.4-0.6,5.5,0.3,8.4,0c3-0.3,5.6-1.5,7.8-1.1
			c2,0.3,3.7,2.5,5.6,2.8c5.9,0.9,11.9-0.9,17.3,0.6c1,0.3,1.9,1.3,3.1,1.7c3.6,1.3,6,0.9,6.7,5.3c2.8,1,4.5,3.6,7.8,4.5
			c2.2,0.6,4.5-0.3,7-0.3c3.3,0,7.5,0.1,10.3,0.6c1.6,0.2,2.9,1.4,4.5,1.7c1.1,0.2,2.6-0.1,3.9,0c1.7,0.2,3.3,0.9,4.7,0.8
			c2.9-0.1,5.1-2.7,7.5-3.1c1.3-0.2,3,0.5,4.2,0.6c4.7,0.4,10.1-0.6,13.9,0.3c2,0.5,5.5,2.7,7.8,4.5c1.6,1.3,2.6,3.2,4.2,4.2
			c1.5,0.9,5.2,2.5,6.7,2.2c1.8-0.3,1.9-2.3,3.6-3.1c5.5-1.2,15.3,1.8,19.8-0.3c1.7-0.8,1.4-2.6,2.8-3.6c8.4-0.4,16.7,0.3,24.5,0.6
			c2.8,0.1,5.6-0.7,8.1-0.3c2.8,0.5,4.8,3.2,7.5,4.2c1.8,0.6,5.1,0.3,7.8,0.8c1.8,0.4,3.4,1.5,4.7,1.7c3,0.4,5.8-0.3,8.6-0.6
			c6.4-0.5,14.6-0.9,20.9,1.7c3.4,1.3,4.8,4.1,8.4,4.5c5.2,0.6,13.1-0.4,18.4,0c1.3,0.1,2.4,0.6,3.3,0.6c1.8-0.1,2.8-1.6,5-1.7
			c2.8-0.1,7.1,4.3,11.2,3.6c1.7-1.2-1.4-2.8,0.3-3.9c1.6-1.3,3.7,0,6.1,0c1.3,0,2.9-0.7,4.2-0.6c3.1,0.3,6,3,9.8,3.9
			c3,0.7,7.1,1,10.9,0.6c2.7-0.3,5-1.2,7.5-0.8c1.2,0.2,2.3,1.1,3.6,1.4c1.2,0.3,2.4,0,3.3,0.3c0.9,0.3,1.9,1.1,2.8,1.4
			c5.2,1.5,12.1,2.2,17.6,3.9c3.2,1,6.5,3,9.2,3.1C1340.2,63.9,1341.4,63.3,1343.1,63.3z M1098,128c1.1-3.5-0.6-7.1-2.8-9.5
			c-3.2,0.6-0.9,3.9-1.1,5.9c-0.3,2.8-3.3,4.7-3.1,7.5c-1.1,1.3-2.9,1.7-3.1,3.9c1.8,1.2,2.5-1,3.9-2.2
			C1094,131.6,1097.3,130.4,1098,128z M1025,31.3c-3.1,0-4.2,1.2-6.1,2.2c-1,0.6-3.2,0.9-2.5,2.5C1019,35.7,1024.3,34.5,1025,31.3z
			 M966.4,162.9c-1-2.1-4.1,0.6-2.8,2.5C965.5,165.5,966.2,164.4,966.4,162.9z M907.3,65.6c6.5,1.5,9.6-5.9,5.3-10
			c-1-1-4.4-1.4-5.9-3.6c-1.7-2.7-1.5-6.4-5.6-5.6c0,0.3,0,0.8-0.3,0.8c-0.4,6.1,8.5,7.6,8.4,12.5C909.2,62.3,906.5,62.6,907.3,65.6
			z M901.5,174.3c4.5-0.9,0.1-8.1-3.3-7.3C893.7,168.2,898.4,174.9,901.5,174.3z M880.9,210.3c1.4-9.7-6.1-10.4-7.5-17.3
			c0.6,0.1,0.3-0.8,0.8-0.8c1.8-0.9,4.6,1.4,5.6-0.8c0-3.3-4.2-5.8-8.4-4.2c-1.2-0.8-1.4-2.7-1.7-4.5c-3.2-1.9-11-6-10.9-9.8
			c0.1-3.1,4.1-4.8,8.6-4.7c1.9-1.5,0.7-5.9-1.1-7c-7.2-1.6-11.1-0.5-15.6,2.8c-2.2,1.6-4.6,2.7-5.9,3.6c-1.1,0.9-2.6,3.3-2.5,4.5
			c0.2,1.7,2.6,2.7,3.6,5c0.5,1.2,0.4,2.6,0.8,3.6c1.2,2.7,4.3,4.4,6.7,6.7c1.7,1.6,6.3,5.1,6.4,7c0.1,1.6-1.4,1.9-2,3.6
			c-0.5,1.6-1.1,5.5-0.8,7c0.6,3.1,3.8,3.2,6.7,4.5c2.9,1.3,5.7,3.5,8.6,3.6C875.7,213.1,879.1,212.1,880.9,210.3z M815.3,190.2
			c7.6-1.4,4.1-7.8,0.3-10c-2.9-1.7-6.4-3.2-9.8-5.3c-2-1.2-9.4-3.5-9.5-5.9c-0.1-2.6,5.6-3.5,3.3-8.1c-3.8-0.9-12.9,0.5-12.3,4.7
			c0.4,2.4,3.2,1.1,3.9,3.6c-2.7,1-6.1,3.5-8.9,3.1c-3.4-0.5-4.3-4.7-6.1-7.3c-2.7,0.1-4.4-2.6-7.5-2.2c-3.3,0.4-5,5.1-6.7,7.5
			c-0.9,1.3-2.3,1.9-2.8,3.1c-0.3,0.7,0,1.8-0.3,2.8c-1,3.1-3.6,4.2-3.4,7c0.3,2.4,2.9,3.5,3.1,5.6c-0.2,2.1-3.6,1-3.3,3.6
			c5,4.1,5.3-1.9,7.8-2.8c2-0.7,6,0.6,8.6,0c2.1-0.5,3.7-2.5,6.1-3.3c1.5-0.5,3.3-1,5.3-1.1c8.9-0.4,14.6,5.4,22.3,5.6
			C808.1,190.8,812.7,190.7,815.3,190.2z M797.5,223.1c0.2-3-1.1-5.2-1.4-9.5c-5.1-3.1-9,2.9-14.2,2.2c-3.2-0.4-5.5-4.1-8.9-3.6
			c-1.9,0.3-2.8,2.7-4.7,3.1c-4,0.7-5.8-3.2-10-1.7c-6-4.5-8.6-12-10-20.4c-3.3-4.3-8.2-0.8-10.6,2c-1.5,0-3.3-0.8-3.6,0.8
			c-1.1,5.2,7.3,5.7,7.2,9.2c0,2.3-3.3,2.1-4.7,3.6c-1.6,1.7-0.5,3.1-2.5,4.2c-5.5,0.7-7.3-2.3-7.3-7.2c-2.4-3.6-5.4-6.2-7.5-9.2
			c-0.8-1.1-2-2.8-2.2-4.5c-0.2-1.3,0.6-3,0.3-4.5c-0.6-2.7-5.6-4.7-8.6-6.1c-3.3-1.6-7.4-3.1-9.8-5c-1.7-1.4-2.4-3.8-3.9-4.7
			c-1.2-0.8-2.8-0.6-3.9-1.4c-1.5-1.1-1.3-2.9-3.3-3.4c-1-0.4-2.7,1-3.3,2c-1.4,6.1,3.6,6.5,5.9,9.2c1.6,1.9,2.3,4.6,3.9,5.9
			c1.7,1.3,4,1.1,6.1,1.9c1.5,0.6,2.5,2.5,3.9,3.3c2.7,1.6,6.9,1.9,7.3,5c-1.7,1.1-5.4-1.6-6.7,1.1c-0.3,1.8,1.4,2.7,1.4,4.5
			c-0.1,2.7-3.1,5.8-5.9,5.3c-0.3-1.6,1.5-3,1.4-4.7c-0.1-3.5-7.3-9-10.9-10.6c-1.7-0.8-3.8-0.8-5.3-1.7c-2.7-1.5-7.5-5.3-9.2-7.5
			c-2-2.6-3.7-7.5-8.1-7.3c-1.8,0.1-3.3,1.8-4.7,2.5c-1.3,0.7-2.8,1.3-4.2,2.2c-1.6,1.1-2.9,2.2-4.5,2.2c-3.5,0.1-6.5-2.6-9.5-1.9
			c-1,0.2-1.9,1.1-3.1,2.2c0,1.6,0.5,2.7,0.3,4.5c-0.9,1.6-3.6,1.5-5.6,2.5c-2.9,1.5-5.5,4.6-7.8,7c-1.5,1.5-2.9,2.7-3.1,3.9
			c-0.1,0.9,0.8,2.7,0.6,3.9c-0.2,1.3-2.8,4.1-4.5,5.3c-1,0.7-2.3,0.8-3.3,1.4c-2.2,1.3-3.2,3-5,3.3c-4.9,0.9-13.7-1-13.7,4.2
			c0,3.4,4.7,3.5,7.5,3.3c3.9-0.2,7.3,0.8,9.5,0.3c1.5-0.4,3.2-2.1,4.7-2.8c1-0.5,2-0.5,2.8-0.8c1.7-0.8,2.6-2.2,3.9-2.8
			c2.5-1.2,7.3-2.1,10-2.2c3.8-0.2,7.7,0.4,12.5,0c1.7-0.1,3.4-1.2,5.3-1.4c3-0.2,7,1.2,9.5,1.1c1.7-0.1,3.6-1.7,5.6-1.7
			c2.2,0,4.6,1.6,5,3.1c0.2,0.8-0.5,2.1-0.3,3.3c0.3,2,2.1,2.9,2,4.2c-0.1,1.7-4.5,4.1-3.9,6.1c0.4,1.3,3.5,2.7,5,3.6
			c1.6,1,4.3,2.3,6.1,2.5c1.6,0.2,3-0.4,4.5-0.3c2.4,0.3,6.3,1.7,7.8,2.8c2.6,1.8,2.3,4.8,5.3,5.9c1.3,0.5,3.6,0.2,5.3,0.6
			c4.1,0.9,7.1,4.2,10,3.9c4.7-0.5,2.5-4.9,3.1-8.1c1.2-7.1,15.1-6.8,17.8-2c2,0.5,3.8,0.1,6.1,0.8c1.3,0.4,2.3,1.9,3.6,2.2
			c1,0.2,2.4-0.1,3.6,0c5.3,0.6,10.2,4.6,14.8,3.9c2.9-0.4,5-3.2,7.8-3.3c5.3-0.3,8.8,4,14.5,2c4.2-1.5,3.3-5.9,4.7-10.3
			C795.4,227.5,797.4,225.4,797.5,223.1z M797.2,469.3c1.3-2,2.9-7.8,0-9.2c-0.2,0-0.4,0-0.6,0C795.4,462.4,794.1,468,797.2,469.3z
			 M793.3,411c0.9-1.9,3.2-4,2.8-6.4c-0.8-5.4-10.8-2.7-12,1.1c-0.8,2.6,0.5,4.6-0.6,7.3c1.1,2.1,3.9,2.5,7.3,2.2
			C792.7,414.3,792.5,412.8,793.3,411z M776.3,439.7c1.1-2-1.8-3.4-2.2-5.6c-0.5-2.6,0.6-5.6-1.7-7c-0.3,0-0.6,0-0.8,0
			C769.6,431.7,772.4,439.3,776.3,439.7z M749.3,95.4c-5.9-5-15.9,1.8-22.6,1.4c-2.9-0.2-6.6-2.3-7.5-5c-0.3-0.9,0-2-0.3-3.6
			c-0.3-1.8-1.2-3.6-1.1-4.7c0.3-5,12.8-6,12.8-12.3c-2.4-2.3-9.4-1.9-11.7,0.6c-0.8,0.9-0.8,2.7-1.9,4.5
			c-2.5,3.8-10.6,4.3-13.1,8.9c-0.6,1-1.5,3.9-1.1,5.6c0.7,2.6,6.5,3.4,6.7,6.1c0.3,4.7-7.1,4.1-8.1,8.1c-0.4,1.8,0.9,4.2,0.6,5.9
			c-0.6,2.9-3.4,2.1-7,3.6c-1.8,0.8-3.6,3.7-5.6,3.9c-1.8,0.2-3-1.1-4.2-0.8c-1.8,0.3-1.2,2.6-3.9,3.1c-2.1,0.4-5.9-1.9-6.1,0.8
			c-0.2,1.8,3.4,2.7,5.6,2.5c1.8-0.2,3-1.4,4.7-1.4c3.3,0,5.4,2.4,7.5,2.5c4.8,0.1,9.5-4.4,14.5-3.9c2.3,0.2,3.6,1.8,5.3,1.7
			c2.7-0.3,5-3.4,7-4.5c-0.8-4.7,0.1-10.9,4.5-11.2c3-0.2,7.5,5.2,8.1,0c0.2-2.2-2.4-4.2-4.2-4.2c-1.6,0-3.7,3.2-5,0.6
			c0-2.6,2.9-1.9,4.5-2.5c1.2-0.5,2-1.8,3.3-2.2C737.5,96.4,746.7,101,749.3,95.4z"/>
		<path class="st0" d="M1316.9,614.8c-0.8,3.5-3.5,7.3-7,9.8c-2.5,1.8-10.5,5.3-11.4,0.3c-0.3-1.4,1.6-7.9,2.2-9.2
			c2-3.9,4.1-1.4,7.3-0.8C1311.2,615.3,1314.3,612.8,1316.9,614.8z"/>
		<path class="st0" d="M1295.1,209.4c1.1,3.3,1.9,6.6,2.8,9.8c-3.1,3.8-9.1,2.4-13.7,4.5c-2.1,1-2.7,4.5-4.7,5
			c-1.6,0.4-2.9-1.4-4.5-1.4c-4,0.1-6,6.7-10.9,5c-2.8,1.7,0.1,8.1-3.3,8.6c-2.5,0.4-3.8-2.8-5.3-4.7c-1.8-2.4-4.4-3.7-4.5-5.6
			c-0.1-2,4-5.3,5.3-6.7c1.6-1.7,4.7-4.9,6.7-5.3c3.7-0.8,7.5,0.4,10.3-0.8c2.4-1,2.6-4.9,3.9-5.9c1.1-0.8,2.4-0.6,3.3-1.1
			c2.6-1.4,5.4-6.2,3.9-11.2c-0.9-3.1-6.1-6.5-2.8-10.3c4.9,0.5,11.4,5.4,12.3,10.3c0.3,1.9-0.7,3.8-0.6,5.9
			C1293.6,206.7,1294.6,207.9,1295.1,209.4z"/>
		<path class="st0" d="M1296.2,179c-0.6,1.4-1.9,1.1-3.1,1.9c-1.1,0.8-2.5,3.4-3.9,3.6c-2.2,0.4-4.8-2.2-7-1.7c-2.6,0.6-1.1,2.6-2,5
			c-2.3-0.5-6-3-6.1-5.6c-0.1-1.6,2-2.6,2.5-4.5c0.8-3.2-1.3-4.8-2.5-7.8c-0.1-0.5,0.3-0.5,0.3-0.8c2.7-0.6,8.1,4.6,14.2,5.6
			C1292.7,175.5,1296,175.2,1296.2,179z"/>
		<path class="st0" d="M1285.9,462c0.3,2.3-3.8,2.1-4.2,0.6C1281.8,460.8,1285.4,460.2,1285.9,462z"/>
		<path class="st0" d="M1266.4,155.6c2.8,1.5,9.4,4.8,4.7,7.8C1268.3,162.4,1265.3,158.8,1266.4,155.6z"/>
		<path class="st0" d="M1253.6,449.7c3.2-1.7,6.7-5.6,12.3-3.6c-1.2,3.5-5.4,3.4-8.1,5c-2.7,1.6-5,4.4-8.4,4.7
			c-0.3-0.5-0.6-0.9-1.1-1.1C1248.3,451.6,1251.4,450.9,1253.6,449.7z"/>
		<path class="st0" d="M1246.1,397.3c3.3,0,6.4-1,8.6,0.3c-0.4,7-11.2,1.7-18.4,2.8c-1.5,0.2-2,1.4-3.6,0.8c0.1-2.4,2.6-4.7,5.3-5
			C1240,396,1243.1,397.3,1246.1,397.3z"/>
		<path class="st0" d="M1248.9,406c0.3,3.9-4.9,4.3-6.4,7.3c2.3,3.5,3.2,8.5,5.9,11.7c-0.1,2.1,0.4,4.9-0.8,5.9
			c-5.6,1.1-8.6-9-10.9-12.5c-4.3,0.8-0.4,14.5-6.1,12.8c-2.8-0.8,0-4.8-0.6-7.8c-0.5-2.7-3.1-3.2-3.3-5.3c-0.2-1.7,1.9-3.5,2.5-5.3
			c0.9-2.5,0.3-7.4,3.3-7.5c1.5-0.1,3.5,3.1,4.5,3.3C1240.2,409.2,1244.2,405.1,1248.9,406z"/>
		<path class="st0" d="M1238.5,447.5c-1,2.1-6.8,1.1-7.3-0.8C1232.3,444.5,1238.1,445.1,1238.5,447.5z"/>
		<path class="st0" d="M1233.2,454.2c-0.3,0.4-0.7,0.8-1.1,1.1c-2.1-0.7-4.4-1.2-5-3.4C1228.7,449.7,1233.2,451.6,1233.2,454.2z"/>
		<path class="st0" d="M1222.9,392c0.8,1.6,3.2,3.4,3.1,4.5c-0.2,2.1-4.4,2-5.3,4.2c-0.9,2,0.1,2.2-0.3,5.3
			c-1.2,2.3-4.3,2.8-5.3,5.6c-1.2,3.3,0.2,7.6-2.5,10c-1.9-0.1-3.9,1.6-6.1,1.4c-2.4-0.2-4.8-3.6-8.6-3.6c-1.5,0-3.2,0.9-4.7,0.8
			c-1.2-0.1-2.2-1.2-3.9-1.7c-2.1-0.6-4.1-0.3-5-0.8c-1.9-1.2-1.6-4.5-2.2-6.4c-0.6-1.9-2.9-3-4.2-5.6c-1.8-3.8-2.6-12.3,2.2-13.1
			c1.9-0.3,3.9,1.2,5.3,0.8c2.7-0.7,2.2-4.1,4.5-5.6c1.2-0.8,3.5-0.5,5.3-1.1c1.8-0.7,3.2-2.4,4.5-3.9c1.2-1.4,2.1-3.7,3.6-4.7
			c1.7-1.1,3.3-1.2,4.7-2.2c3.7-2.8,3.8-6.7,6.7-10c2.5-2.8,6.4,2.7,6.7,5c1.4,1.8,4.1,2.2,5.3,4.2c-1.6,4.9-6.3,5.3-5.3,12.3
			C1221.4,388.4,1222.2,390.5,1222.9,392z"/>
		<path class="st0" d="M1225.7,447.2c-1.4,2-6.3-0.2-8.1,2c-2.9-0.1-5.8-0.1-6.4-2.5c0.8-2,3.5-0.6,5.6-0.8
			C1220.2,445.5,1224.8,443.2,1225.7,447.2z"/>
		<path class="st0" d="M1206.8,446.1c-2.5,2.6-6.1,0.7-9.2,0.3c-2.8-0.4-5.9-0.2-8.9-0.6c-3.9-0.5-7.4-2.6-11.2-3.1
			c-2.3-0.3-4.6,0.3-6.7,0c-2.5-0.4-11.9-3.9-12-6.4c-0.1-2.6,4.2-3.3,8.1-2.8c5,0.7,8.3,5.1,14.8,4.2c1.5-0.2,2.7-1.3,4.2-1.4
			c3.3-0.1,6.5,2.4,10.3,1.9c0.8,0.9,0.3,1.6,0.3,3.1C1199.7,443.1,1205.1,442.8,1206.8,446.1z"/>
		<path class="st0" d="M1171.1,412.3c7.1,0,7.1,11,0,11C1164.1,423.3,1164.1,412.3,1171.1,412.3z"/>
		<path class="st0" d="M1160.8,411c0.9,0.1,4,4.4,3.9,5.6c-0.1,2-3.1,1.9-3.9,4.5c-1.3,4,0.6,8.5-1.7,10.6c-1.3,0.8-3.6,0.5-5.6,0.6
			c-5.1-3.6-9.1-7.8-13.4-12.5c-1.6-1.7-3.5-3.2-4.5-5c-1.5-2.7-2-5.6-3.6-8.1c-1.5-2.2-4.1-3.8-5.6-6.1c-1.2-2-1.3-4.5-2.5-6.4
			c-1.1-1.8-3.1-2.5-4.5-3.9c-0.9-0.9-1.4-2.3-2.2-3.3c-3.5-4.2-10.2-6.4-10.6-12.5c1.4-1.6,2.9,0.6,5.6,1.1c1.7,0.3,3.8-0.1,5,0.3
			c2.5,0.9,4.3,4.8,7,7c1.5,1.2,3.5,2,5,3.3c1.7,1.4,2.9,3.4,4.2,4.2c1.8,1.1,4.3,1.8,6.7,3.4c3.2,2,9,4.2,9.8,8.4
			c0.2,1-0.5,2.8-0.3,3.6c0.4,1.5,2.2,2.1,3.3,3.3c1.4,1.6,1.7,3.9,3.6,4.2C1158.5,413.5,1158.6,410.7,1160.8,411z"/>
		<path class="st0" d="M1029.2,352.4c2.4,0.8,10.4,10.5,8.1,15.9c-0.7,1.5-3.4,3.5-6.1,3.1c-5.5-0.9-4.5-13.2-2.8-18.1
			C1028.5,352.9,1028.8,352.6,1029.2,352.4z"/>
		<path class="st0" d="M876.1,477.3c0.2,1.5,1,3.1,0.8,3.9c-0.4,2.2-2.9,2.7-3.6,4.2c-0.2,6.1-2.6,11.4-4.7,16.4
			c-1.9,4.3-2.9,9.1-4.5,12.8c-0.6,1.4-1.7,2.4-2.2,3.6c-2,4.7-2.7,12.2-6.4,14.2c-1.3,0.7-6.4,2-7.8,2c-3.4-0.1-6.4-2.6-7.2-5.6
			c-0.5-1.6,0-3.2-0.3-5c-0.3-2.2-1.7-4.1-1.4-6.7c0.6-5.7,6.1-8.4,6.4-13.1c0.2-3.5-1.8-7-1.4-10.6c0.2-2.2,1.8-5.9,3.6-7.3
			c2.6-1.9,6-1.7,8.6-3.1c2.1-1.1,5.1-3,6.7-5c1.3-1.7,1.4-3.7,2.5-5c0.8-0.9,2.4-1.1,3.3-2.2c0.8-1,0.6-2.8,2-3.9
			C874.4,465.4,875.5,472.5,876.1,477.3z"/>
		<path class="st0" d="M815.6,55c-0.8-3,4.9-2.5,3.9,0.3C818.6,56.1,816.2,56,815.6,55z"/>
		<path class="st0" d="M781.3,221.7c0.1-2.3,5.4-3.1,6.4-1.1C787.4,222.8,782.4,224.4,781.3,221.7z"/>
		<path class="st0" d="M685.7,206.6c2.9-2.4,9.4-0.8,13.4-0.8c-0.8,2.1-0.9,4.9-2.5,6.1C692,211.1,687.8,210,685.7,206.6z"/>
		<path class="st0" d="M665.4,191.9c3.8-4,7.8-1.9,6.4,5.9c-0.9,2.3-4.9,5.4-6.7,2C665.7,197,665.4,195,665.4,191.9z"/>
		<path class="st0" d="M670.9,182.9c0.3,2.4-0.7,3.4-2,4.2C665.3,186.5,668.1,179.9,670.9,182.9z"/>
		<path class="st0" d="M636.9,132.5c0.3,2.7-3.3,3.7-2.8,6.7c-3.8,3-10.2,1.5-16.5,2.2c-2.8,0.4-5.9,3.2-8.9,0.8
			c-0.7-1.9,2.5-2.1,2.8-3.9c-0.2-1.6-2.3-1.4-2.8-2.8c0.8-2.2,3.3-2.6,3.1-5.9c1.6-1.7,4.5-1.1,5-3.3c0.3-1.6-0.9-3.6-2.5-4.5
			c-0.9-0.5-2.3-0.3-3.3-0.8c-2.7-1.5-3.7-4.6-5.3-5.3c0.2-3.1-0.8-5.3,0-7.3c0.5-1.2,4.2-4.6,6.1-5.3c2.4-0.9,5-0.1,6.4-2
			c0.6-0.1,1.1,0,1.4,0.3c0,1.8-1.5,2-1.7,3.6c0.3,2.5,4.8,1,5.3,3.3c-0.4,2.6-2.8,3.1-2.8,5c0,1.7,3.4,4.8,5,7
			c1.2,1.6,3.4,2.8,4.5,4.5c1,1.4,1.2,3.2,2,3.9C633.4,130.2,636.7,130.5,636.9,132.5z"/>
		<path class="st0" d="M606.5,121.9c0.3,2.1-2,2.4-2.8,4.7c-0.7,2.1,0.1,4.7-0.8,6.1c-0.9,1.3-3.2,1.2-4.7,1.7
			c-3.5,1-10.3,5.2-13.1,0.6c0.4-2.5,2.8-3,3.6-5c0-1.6-1.7-2.5-1.4-4.2c0.3-2.1,1.9-1.4,4.2-2.2c1.6-0.6,2.3-2.6,4.5-3.9
			C599.7,117.4,606.2,119.1,606.5,121.9z"/>
		<path class="st0" d="M497.2,440.8c0.6,10.1-7.2,13.4-11.7,20.1c-0.9,1.4-1.5,3.6-2.8,5.6c-2.7,3.9-5.7,4.8-5.3,12
			c0.1,2,1.1,3.9,1.1,6.1c0,2.7-0.2,6.2-0.8,8.6c-0.5,1.9-2,3.3-2.2,5c-0.2,1.7,0.5,3,0.3,4.5c-0.2,1.6-1.8,3.9-3.1,6.1
			c-2.6,4.8-3.1,10.4-8.4,12.3c-3.1,1.1-7.2,0.5-10.6,1.7c-1.4,0.5-3.1,1.7-4.7,2.5c-4.9,2.3-11.8,5.3-13.1,10.3
			c-1.2,4.5,1.7,8,0.8,13.1c-0.9,1.5-2,3-3.3,4.7c-1.2,1.6-1.8,3.4-3.1,5c-1.7,2.1-4.3,3-5.3,5.9c-0.3,1-0.1,2.1-0.6,3.6
			c-0.2,0.6-1.2,1.4-1.7,2.5c-0.5,1-0.4,2.3-0.8,3.1c-1.3,2.6-5.1,8.4-7.8,9.2c-5.8,1.6-11.9-2.5-15.9-1.7c0.6,2.8,2.6,2.5,3.9,4.5
			c0.8,1.2,1.2,2.7,2.2,3.9c1.3,1.5,2.4,2,2.5,3.6c0.3,3.4-2.4,6.9-4.2,8.1c-1.7,1.1-5.1,1.7-8.1,2.2c-2.1,0.3-7.4,0.4-8.4,1.7
			c-1.4,1.9,0.8,6.7-0.3,8.6c-2.1,4.1-7.7-0.1-10.6,1.1c-0.2,2.1,0.5,4.3,2.2,5.3c1.8,1,4.4-0.3,5.6,1.7c-0.6,2.8-3.6,3.1-4.2,5.9
			c0.1,2.7,0.9,3.4,0.6,5c-0.7,3.6-6.3,3.4-6.1,7.3c0.2,5.7,11,3.4,11.2,8.9c0.1,3.4-3.1,3.4-4.2,6.7c-0.6,1.8,0.3,2.2,0,3.6
			c-0.5,2-2.8,2.5-2.8,4.7c0,2.7,3.9,5.6,5.9,7.8c1.9,2.2,4.4,5.2,7,6.7c3.9,2.2,9.7,1.7,11.4,5.6c-0.5,2.3-2.8,3-5,3.6
			c-0.2,0-0.4,0-0.6,0c-0.8-0.5-3.4-0.5-4.2,0c-1.3,0-2.6,0-3.9,0c-3.7-1.7-8.3-2.8-12.8-4.5c-1.6-0.6-3.5-2-5.3-2.8
			c-1.3-0.6-2.9-0.8-3.9-1.4c-2.4-1.3-5.1-5.4-7.5-7c-1.5-1-3.8-1.5-4.7-2.5c-0.9-1-1.4-3-2.2-4.2c-0.9-1.3-2.6-2.2-3.6-3.6
			c-2.3-3.1-5.3-7.2-5.3-9.5c0-2.2,2.1-3.7,1.4-5.8c-0.7-2-5-1.5-5.6-3.9c-0.4-1.4,1.2-3.8,1.1-5.9c-0.1-1.2-2.3-2.8-1.4-4.5
			c1-1.9,2.9,0.2,4.5-0.8c-1.2-4,0.1-10.5-3.9-11.7c-2.1,1.7,2.1,5.6-1.4,6.7c-3.4-1.5-2.6-5.9-3.3-9.2c-0.5-2.2-1.6-4.1-1.7-6.4
			c-0.1-1.2,0.5-2.6,0.3-3.9c-0.6-3.8-4.8-6.8-5-10.6c-0.1-1.8,1.1-3.4,1.4-5.3c0.2-1.3-0.2-2.8,0-4.2c0.2-1.8,1.2-3.4,1.4-5
			c0.3-3.1,0-8.3-0.6-10.9c-0.7-3.2-3.2-6-3.6-9.5c-0.1-1.3,0.4-3.4,0.3-5c-0.1-1.5-1-3-1.1-4.7c-0.1-1.6,0.4-3.1,0.6-5
			c0.3-3.5-0.7-7.4-0.6-10.9c0-1,0.6-1.8,0.6-2.8c0-2.9-1-5.8-1.1-8.6c-0.2-5.3,0.6-9-0.3-13.9c-0.6-3.7-1.5-9.4-2.8-11.7
			c-1.5-2.6-7.4-7-10.3-8.6c-2-1.1-4.3-1.5-6.4-2.5c-4.5-2.2-13.3-6.9-15.3-11.4c-0.6-1.3-0.5-3-1.1-4.5c-1.2-2.9-3.8-5.3-5.6-8.1
			c-3.4-5.3-6.2-11.9-9.8-17.3c-1.8-2.8-3.3-5.9-5.3-8.1c-1.1-1.3-4.8-2.5-5.3-4.5c-0.6-2.6-2.5-6.1-2.2-8.1
			c0.4-2.7,5.6-4.8,5.6-7.2c0-2.1-2.8-3.3-3.3-5c-1.4-4.3,0.8-6.8,2.5-10.3c0.6-1.2,1.1-3,1.7-3.9c1-1.5,3.1-2,4.5-3.6
			c0.8-0.9,1.2-2.9,2.2-4.2c2.1-2.8,5.5-3.9,6.4-6.4c0.7-2.1,1.1-12.4,0.3-15.9c-0.5-2-2.4-3.7-3.1-5.6c-1.3-3.4-1.6-7-5-7
			c-2.1,0-3.6,2.4-5,3.9c-0.3,2-0.2,4.1-2.2,4.7c-3.2,0.9-4.4-3.3-8.1-4.5c-1.5-0.5-3.8-0.4-4.7-0.8c-2.7-1.2-3.6-5.2-6.4-6.7
			c-2.4-1.3-4.4-0.8-5.9-2.8c-0.6-1.3-0.1-3.8-0.3-5.6c-3.1-1.8-5.6-8.5-9.2-10c-2.4-1-6-1-8.9-2c-1.4-0.5-2.5-1.1-3.9-1.4
			c-1.8-0.4-3.6-0.4-5-1.1c-5.5-2.7-8.5-11.6-15.3-11.4c-2.9,0.1-5.7,2.8-8.4,2.8c-2.6,0-7-2.1-10.3-3.6c-3.4-1.6-7.2-2.5-10-3.9
			c-2.3-1.2-3.9-3.3-5.9-4.2c-1.5-0.7-3.8-0.8-5-1.4c-1.8-0.8-3.6-2.6-5.9-4.2c-2.1-1.5-4.4-3.7-4.5-5.6c-0.1-2.2,2-4,2.2-6.1
			c0.7-6.6-4.2-11.4-7.3-15.3c-2.3-2.9-5-5.4-7.2-8.1c0.1-1.8,0.1-2.1,0-3.9c-1.7-1.7-3.2-4.2-5-6.7c-1.7-2.3-4.9-4.7-5.3-7.2
			c-0.5-3.1,1.2-5.9,0-8.9c-2-5-9-2.8-8.1,3.9c0.3,1.8,2.8,4.3,3.6,6.1c0.8,1.9,0.6,4.2,1.4,6.4c0.7,2.1,2.9,4,3.6,6.4
			c1.2,3.8,1.1,7.9,2.2,10.3c1,2.1,4.5,4.1,2.5,6.7c-2.6,0.5-3.7-2.1-5.3-3.6c-0.9-0.9-4.2-2.5-4.7-4.5c-0.4-1.6,1-3.9,0.6-5.9
			c-1-3.9-8.9-4-8.9-8.1c0-2.5,3.3-2.8,3.4-5.3c0-2.7-3.7-5-4.5-7.2c-0.7-2.1-0.8-5.4-1.1-8.4c-0.3-2.8,0.1-6-0.6-8.1
			c-0.6-1.9-3.4-4.5-5.3-5.6c-2.4-1.4-4.4-0.8-5.6-2.8c-1-1.7-1.7-5.4-1.9-7.2c-0.4-3.4-0.1-7-0.3-10.6c-0.2-3.6-0.5-7,0-10.9
			c1.4-2.7,3.9-4,5.3-6.7c1-1.9,1.1-4.2,2.2-6.1c2-3.6,6.5-7,9.5-10.6c3.2-3.9,6.2-7.6,8.1-12c0.7-1.6,2.5-5,2.2-7
			c-0.4-2.7-5.4-4.9-5-8.1c0.3-2,3.1-2,3.9-3.9c0.4-1,0.8-3.8,0.8-5c0-2.7-1.4-5.5-0.8-8.4c0.5-2.5,4.1-3.4,2.2-6.1
			c-1.9-2.7-5.2,1.4-7.3-0.3c-1.9-1.6,0.4-3.5,0.6-6.4c0.1-1.2-0.7-2.5-0.6-3.3c0.2-1.2,2.6-3.3,2-4.2c-1.5-1.9-3.2-6.8-6.4-8.4
			c-4.1-2.1-8.5-0.7-14.2-1.7c-3.5-0.6-5.1-3.9-8.4-3.6c-2,0.2-3.1,2.4-5.9,3.6c-2.7,1.2-6.2,0.8-8.9,1.4c-2.7,0.6-3.9,2.4-6.7,2.2
			c-2.3-0.2-2.3-2.2-5-2.5c-1.1-0.1-3.1,0.7-4.7,0.8c-4.3,0.5-12.1,0.7-16.5-0.3c-4-0.9-6.5-2.1-10.9-4.2c-3.3-1.5-9.5-3.4-9.2-5.9
			c0.2-1.6,5.8-3.2,8.1-3.9c3.6-1.1,5.9-2.9,8.6-3.1c1.1-0.1,2.5,0.7,3.9,0.6c1.4-0.1,3.2-1.4,5-1.7c3.9-0.5,9.4,0.2,8.9-3.6
			c-3-2.3-15,1.7-15.3-3.3c-0.2-3.1,4.6-4,8.1-4.7c3.2-0.7,8-1.8,10.9-1.7c3.2,0.2,7.4,3.7,9.2-0.3c0.9-2.8-1.1-5.2-1.7-7.5
			c2.4-3.3,6.7-2.9,10-3.3c3.8-0.6,6.9-1.2,10.6-2.8c3.3-1.4,6.7-2.3,10.6-2.8c3.8-0.5,7.5-1.9,10.9-2.2c2.8-0.3,5.4,0,8.1-0.6
			c2.4-0.5,4.9-1.8,7.5-1.7c1.8,0.1,3.3,1.4,5,1.7c1.7,0.3,3.5-0.1,5.3,0.3c1.3,0.3,2.6,1.2,3.9,1.4c2.1,0.3,4.4-0.3,6.4,0
			c1.9,0.3,3.5,1.4,5.3,1.7c4.3,0.6,9.2-0.2,13.4,0.6c1.6,0.3,3,1.1,4.7,1.4c1.6,0.3,3.4,0,5,0.3c2.2,0.4,4.1,2.5,6.4,2.8
			c4.3,0.5,9.2-1.9,13.7-2.2c3.3-0.3,6.6,0.1,10-0.6c3.1-0.6,6.1-1.8,8.9-2c1.5-0.1,2.8,0.5,4.2,0.3c1.4-0.2,3.2-1.9,4.7-1.7
			c2.1,0.3,1.7,3,3.9,3.6c2.4-1.3,4.9,0.1,7.5,0c2.6-0.1,4.9-1.3,7.8-0.8c5.1,0.8,12.2,5.8,16.2,3.1c1-0.7,0.8-1.9,1.7-3.6
			c1.2-2.4,3.7-5.2,3.1-8.6c-5.6,0.1-10.9,2.8-17.3,3.1c-6.4-4,1.7-6.5,6.4-8.4c3.9-1.5,6.9-4.9,11.7-5.6c3.9-0.6,8.2,0.9,12.8,1.4
			c2.7,0.3,5.4-0.2,7,0.3c2.7,0.8,4.1,3.5,6.4,4.2c1,0.3,2.6,0.3,3.9,0.6c2.5,0.6,4.8,1.9,7.3,0c2,0.4,2.2,2.4,4.2,2.8
			c1.9-1,3.3-3.5,6.1-4.2c1.2-0.3,2.5,0.2,3.9,0c2.3-0.4,5.3-3.4,6.7-0.6c-0.6,2-3.6,2.3-5.3,3.9c-1.5,1.4-3.8,4.7-3.6,6.1
			c0.3,2.7,4.3,1.6,4.5,5c-0.6,1.9-2.9,1.1-4.7,1.9c-1.7,0.8-2.4,2.4-4.2,2.8c-5.1,1-9.3-1.3-13.7-1.1c-0.2,1.9,2.2,3,3.3,3.6
			c4,2.1,7.2,1.8,12.8,1.7c2.9-0.1,6.2,0.9,8.6-0.8c1.6-1.1,1.5-3.4,2.8-4.7c1.6-1.6,5.2-3.2,7.5-2.8c1.3,0.2,3,1.7,3.1,2.8
			c0,2.5-3.6,1.7-3.6,4.5c2.4,1.4,8.6-1.5,8.9-3.9c0.2-1.7-2-2.7-2-4.5c0.1-2.9,4.1-2.9,3.6-5.9c-1.9-1.5-3.9,0.3-5.9,0
			c-2.7-0.5-5.2-3.7-6.4-5.9c1.2-1.5,3.7-0.5,5.6-0.3c2-2.8,5.9-3.9,11.2-4.5c1.9-0.2,4.4-0.9,5.3,0.8c0.5,2.6-3.9,4.2-3.1,7.3
			c3.8,0.9,5-4.1,8.1-6.1c1.4-0.9,3.3-1.5,5.3-2.2c1.7-0.7,3.6-2.3,5-2.2c1.5,0,1.8,1.3,3.3,2c1.4,0.6,3.2-0.4,3.6,1.4
			c-3.2,5.6-15.3,2.4-18.4,8.1c0.7,3.8-1.9,7.5,0.3,10c1.5,1.8,5,0.6,5.9,2.5c1.1,2.6-3.4,2.6-2.2,5.6c2.9,1.8,6.5-1.7,9.2-3.1
			c2.9-1.5,6.6-3.2,7-6.7c-1.5-2.8-7-0.6-7.8-3.6c-0.5-1.6,1.7-5.2,2.2-5.9c2.9-3.3,13.1-7.9,20.4-7.3c1.4,0.1,2.8,1,4.2,1.1
			c4.8,0.5,10.5-2.1,14.2,0c3-1.8,6.7,0.2,10.9-0.3c3.2,1.9,2.4,6,7.3,7.8c1.3,0.5,3,0.1,4.7,0.6c1.3,0.3,2.7,1.8,4.2,2.5
			c2.1,1,3.7,0.7,4.2,2.2c0.4,1.5-1.5,2.4-1.4,3.9c1.2,1,0.2,2.5,0.8,3.9c1.2,2.6,4.2,2.4,7.2,3.6c2.1,0.9,6.6,3.5,6.4,5.6
			c-0.1,1.4-4.2,3.8-5.6,4.5c-1,0.5-5.7,2.7-7.2,2.5c-2.6-0.4-3.7-5.7-7.3-5.6c-1.6,0.1-3,1-3.1,3.1c-0.1,3.7,4.1,3.8,4.2,7
			c0.1,3.8-2.1,4-5.3,6.4c-2.3-0.9-4.3-2.3-7.3-2.5c-1.8,2.1,2.9,2.9,1.4,5.6c-4.5,1-7.9-1.3-12-2.5c-1.3-0.4-3.1-0.2-4.2-0.8
			c-1.6-0.9-2-3.6-3.4-5c-1.5-1.6-4.5-3.9-7-3.9c-3.4,0-8.4,4.3-11.2,0.3c1.9-6.4,10.8-1.6,16.7-3.9c2.2-0.8,2.9-3.2,4.7-4.2
			c3.6-2.1,9.5-2.3,8.9-6.4c-0.3-2-3.1-2-4.7-3.1c-2.2-1.4-3.9-6.4-7-6.7c-1.6-0.1-2.8,1.2-4.5,1.4c-3.6,0.3-7.6-1.5-10.9,0
			c-1.5,0.9-0.5,2.3-1.7,3.9c-1,1.4-3.3,1.7-4.2,3.1c-1.1,1.6-0.9,3.5-2.2,4.7c-2.3,2-7.1,2.4-10,3.3c-1.3,0.4-2.9,2-4.2,2
			c-2.3,0-3.3-3.1-5.9-2c-0.2,3,3.2,4.2,5.3,5.6c2.3,1.5,4.8,3,5.6,5.6c-2.3,4.8-5.9-0.3-9.5-0.3c-4,0-9.7,7.5-13.1,1.4
			c0.8-3.3,4.4-3.8,5.3-7c-3.9,0.7-7.4,4-12,5c-1.9,0.4-3.8,0.3-5.6,0.8c-3.3,1-5.7,3.4-9.2,4.7c-1.4,0.5-3,0.4-4.5,0.8
			c-3.4,1.1-7.4,3.1-10.9,5c-3.5,1.9-7.6,3.9-9.8,5.9c-1.2,1-4.3,4.7-4.2,5.9c0.1,1.7,3.3,2.2,3.3,3.9c-0.1,1-1.8,3.2-0.6,4.7
			c1.1,1.4,3.4,0.3,5.9,0.6c4.3,0.5,7,4,10.3,5.9c2.5,1.4,6.1,3,8.9,3.3c3.8,0.5,8.1-1.1,8.6,2c0.5,2.9-3.6,4-3.9,5.9
			c2.1,2.7-1.4,4-1.4,6.4c0,1.9,2.4,4.8,4.5,5c2.8,0.2,6.9-2.8,8.1-5.6c1.4-3.3,0.8-7.9,3.3-10.3c13,0.4,24-5.9,23.1-19.2
			c-0.1-1.3-0.8-3-0.6-4.5c0.4-2.2,4.1-4,3.6-6.7c3.6-1.1,3.5-7,7.3-7.8c3.2-0.7,6.7,2.2,10.9,2c1.4-0.1,3.1-1.3,4.5-1.1
			c2.7,0.4,4.4,3.7,6.4,5.3c1.8,1.4,3.7,0.9,4.2,2.8c-0.5,3.1-2.7,3.2-2.5,6.1c0.2,2.6,2.9,4.5,4.2,4.7c2,0.4,4.9-0.7,7-1.7
			c3.7-1.8,6.9-7.1,10-6.4c2.5,0.5,4.4,8.3,4.7,11.2c0.4,3-0.4,5.3-0.3,8.1c0.4,4.7,6.3,4.2,9.2,6.7c0.9,0.7,1.2,2.7,2,3.6
			c1.4,1.9,3.1,1.9,3.3,3.9c0.5,4.8-4.4,5.2-3.9,10.6c-1,2.1-3.5,2-3.3,4.7c0.3,4.4,6.6,1,8.4,4.5c0.9,1.8-0.2,3.2-0.8,5.9
			c2.2,2.6,2.1,6.7-1.7,6.7c-2.3,0-3-2.5-5.3-3.1c-1.3-0.3-3.1-0.3-4.7-0.6c-1.4-0.3-3.1-0.7-4.5-0.8c-3.4-0.4-7.2,0.6-9.2-1.4
			c3.3-4.4,7.7-8.8,12-12.5c1.3-1.1,4-1.9,3.3-4.2c-2.4-2.1-5.3,0.1-7.5,1.4c-2.4,1.3-5.2,3.2-7.8,3.6c-4.6,0.7-10.7-1.4-14.5,1.1
			c-0.5,2.1,4.3,1.3,3.6,4.5c-1.8,0.3-3.6,0.5-5-0.8c-1.3-1.2-0.6-2.9-1.4-3.6c-1.4-1.2-6.8-1.5-9.2-1.1c-2.9,0.5-5.5,2.2-5.9,4.7
			c3.5,1.6,9.3-1.7,10.6,2.5c-1.9,3.5-6.5,5.4-5.9,10c0.2,1.8,2.4,4.2,3.9,4.5c1.5,0.3,2.4-1.3,3.9-1.1c1.6,0.1,1.2,2,3.1,1.7
			c2.7-1.1,4.2-4.9,7.2-4.7c3.7,4.5-3.3,6.7-7.2,8.1c-4.5,1.6-10.3,2.5-13.7,3.9c-1.8,0.7-8.5,7.3-9.5,2.2c-0.7-3.6,3.3-2.6,4.2-5.6
			c-4.3-0.8-8.3,1.9-12.3,3.4c-5.6,2.1-15.1,3.5-16.5,9.8c-0.3,1.3,0.5,3.6-0.3,4.5c-0.7,0.7-4.7,0.8-6.4,1.4
			c-2.7,0.9-5,2.9-6.7,3.3c-1.3,0.3-3.1,0.2-3.9,0.6c-2.2,0.9-3,3.9-5.6,5.9c-1,0.8-3.4,1.4-4.2,2.2c-1.4,1.4-1.6,5-4.2,5.6
			c-1.6,0.1-2.9-1.2-4.5-0.3c-0.2,3.6,1.3,8.4-0.3,12c-3.3,2.7-6.9,4.6-11.2,7c-2.3,1.3-4.4,1.7-7.3,3.1c-2,1-3.8,3.4-6.1,4.7
			c-5.3,3.1-11.8,6.8-11.7,14.8c0,1.7,0.9,3.6,1.1,5.6c0.1,1.2-0.1,2.3,0,3.6c0.3,2.9,2.4,6.6,0,8.6c-3.8-1.5-8.5-2.1-11.2-4.7
			c-0.7-2.8,1.5-5,1.1-7.5c-0.3-2-3.1-5.6-4.7-5.9c-1.7-0.3-3.3,1.5-5,1.4c-2.1-0.2-4-3-6.7-3.3c-3.9-0.5-6.8,0.9-11.2,0.3
			c-4.2,2.2-5.4,6.2-10.6,5.9c-1.8-0.1-3.5-1.5-5.6-2c-2.3-0.5-5.7-1.3-8.1-1.1c-4.7,0.3-8.2,3.7-12.3,5.9c-3.6,1.9-8.7,4.2-9.8,8.1
			c-0.6,2.1-0.1,5-0.8,7c-0.5,1.3-1.6,2.4-2.2,3.6c-3.1,5.7-5.7,13.3-3.3,21.5c0.4,1.2,3.5,8.1,4.7,9.5c1.4,1.5,5.7,3.9,8.1,3.9
			c2,0,4.4-1,6.4-1.4c2.3-0.4,5.2-0.4,7.3-1.1c6-1.9,4.8-10.1,10.9-12.8c2.6-1.2,5.7-1.4,10.3-1.7c1.5,1.2,2.2,3.4,2,5.3
			c-0.2,1.4-1.5,2.7-2.2,4.7c-0.6,1.8-0.8,3.9-1.4,5.3c-0.8,1.9-2.7,3.3-3.3,5c-0.4,1.1-0.2,2.6-0.6,3.6c-0.6,1.8-3.1,3.1-2,5
			c6,2.4,13.2-0.7,18.4,0.3c2.2,0.4,6.7,3,6.7,6.4c0,2.5-2,4.2-2.2,7c-0.3,3.5-1.8,7.8-2,10.6c-0.2,4.6,6.8,12.6,11.7,12.5
			c5.3-0.1,8.4-5.3,14.8-2.5c2.1,0.9,4.4,4.4,6.7,4.2c1.9-0.1,4.8-3.5,6.1-5.9c1.6-2.9,1.7-5.3,4.5-6.7c3-1.5,5.4-0.8,9.2-2.2
			c1.7-0.6,3.2-1.7,4.7-2.8c1.4-0.9,2.8-3.4,4.5-1.7c2.2,2.2-2.7,3.5-0.8,5.9c3.9,2,5.8-3.8,8.6-3.9c0.9,0,4,1.7,5.6,2.8
			c2.2,1.4,2.9,3.4,5.3,3.9c1.5,0.3,4-0.6,6.1-0.3c2.8,0.4,4.5,2.9,6.7,2.8c2.6-0.1,3.9-2.9,6.1-3.3c4.9-0.9,6.8,0.5,8.9,3.6
			c2.4,0.4,2.5-2.8,4.7-1.7c-1.2,2.4,0.4,3.5,1.4,5.6c0.6,1.3,0.5,2.2,1.1,2.8c1.3,1.3,3.9,1.3,5.9,2.5c2.1,1.3,3.2,3.7,5.6,6.4
			c2.4,2.8,6.5,5.6,9.8,5.9c3.1,0.2,5.6-0.9,8.1-0.6c5.8,0.7,9.3,3.6,13.4,6.7c2.3,1.7,4.3,2.9,5,5c0.5,1.5,0.3,3.4,0.8,5
			c1.2,3.5,6.3,5.1,4.5,11.2c0.8,1.8,2.7,2.4,4.7,3.6c1.6,1,3,3.1,4.7,3.3c1.1,0.2,2.4-0.3,3.3-0.3c3.2,0.2,5.3,1.5,8.1,2.5
			c1.7,0.7,3.9,0.9,5,1.7c1.4,1,1.6,4.2,3.3,5c1.1,0.6,3.7-0.2,5.6,0c3,0.3,7.1,2.2,9.8,2.2c1.6,0,3-0.7,4.5-0.6
			c6.8,0.5,10.7,8.7,17.3,11.2c2,0.8,5.3,0.2,6.7,0.8C495,429.9,497.1,437.5,497.2,440.8z M417.5,66.7c1.4,0.2,2.1-0.3,1.9-1.7
			C418.2,64.1,416.4,65.3,417.5,66.7z M385.5,39.4c-0.4-0.4-1.3-0.4-1.7,0c0,0.4,0,0.7,0,1.1C385,40.7,385.2,40,385.5,39.4z
			 M326.9,176.3c-1.2-1.1-4.9-0.8-7.5-0.6c-1.8,0.2-4,0.6-4.2,2C318.1,179,326,179.9,326.9,176.3z M312.4,171.5
			c2.2-1.7,1.2-5.2-1.1-5.9c-0.9-0.2-2.1,0.7-3.6,0.6c-1.6-0.1-3.2-1.6-4.5-1.7c-2.2-0.2-4.5,0.9-5.3,2c-0.1,1.7,1.2,1.9,1.1,3.6
			c-2.7,1.9-1.3,8.4,1.4,8.6c2.8,0.2,4.3-7.2,8.1-7.8C309.9,170.7,310.6,171.7,312.4,171.5z M311.9,354.4c2.2-0.4,1.6-5.4-1.1-4.2
			C308.7,351.1,309.8,354.7,311.9,354.4z M308.5,182.7c-4-1.4-7.6,1-10.9,1.4c-1.9,0.3-5.5-0.4-5,2.5c0.4,2.4,4,1.5,6.1,0.8
			C303.2,186,305.9,184.8,308.5,182.7z M296.2,161.5c5.6-2.4-1.1-9.7-3.6-10.3c-4.5-1.2-10.9,3.3-16.2,4.7c-2.9,0.8-5.7,0.9-6.4,3.4
			c2.6,4.4,7.9-1,11.7-0.3c1.9,0.3,3.1,3,5,3.3C288.1,162.5,295.7,161.7,296.2,161.5z M292.3,165.9c-1.2-1.4-7.4,0.2-9.2,1.4
			c-1.2,0.9-2.1,2.9-3.3,4.5c-1.3,1.6-2.8,2.8-3.9,4.2c-1,1.2-6.7,9.4-2.2,10.3c1.9,0.4,5.8-3.5,6.1-5c1.3-5.1,3.6-8.8,7.5-11.2
			C289.6,168.7,292,168.9,292.3,165.9z M279.5,60.8c0.9-0.6,2.4-1.4,1.7-2.8c-3.1-1.4-8.3-0.3-12.8-0.8c-2.6-3.6-6.9-4.2-7.3,1.7
			C266.3,63.1,274.2,56.9,279.5,60.8z M257.5,134.7c3.1-0.1,5.2-9.3,0-8.1C254,127.4,253.2,134.9,257.5,134.7z M242.4,343.8
			c0.1-0.4,0.4-0.7,0.6-1.1C242.2,339.9,239.5,343.7,242.4,343.8z M229.6,89.6c1.6-0.5,3.8-0.3,4.2-2c-1.3-1-2.6-2.4-4.2-2.5
			c-2-0.1-3,1.7-5,2.8c-2.4,1.2-5.6,1.5-5.9,3.6C223.1,92.3,226.9,90.5,229.6,89.6z M228.2,69.5c1.8-0.3,3.6,0.5,4.7-1.1
			c-1.3-6.1-9.8-2.4-14.8-2c-1,1.7-2.4,3.1-2.8,5.6C219.2,73,223.9,70.2,228.2,69.5z M132.3,150.9c1.3-1.4-0.6-4.2-2.5-3.1
			C129.6,148.8,130.2,151.3,132.3,150.9z M124.5,110.5c0.1-0.5-0.3-0.6-0.3-1.1c-0.9,0-1.8-0.2-1.7,0.8
			C123,111,124,111.1,124.5,110.5z"/>
		<path class="st0" d="M405.5,59.2c0.6,2.5-7.3,5.7-8.1,2.5C396.8,59.1,403.5,55.9,405.5,59.2z"/>
		<path class="st1" d="M396.3,687.5c-1.4,0-2.8,0-4.2,0C392.9,687.1,395.6,687.1,396.3,687.5z"/>
		<path class="st1" d="M383.8,39.4c0.4-0.4,1.3-0.4,1.7,0c-0.3,0.7-0.5,1.4-1.7,1.1C383.8,40.1,383.8,39.7,383.8,39.4z"/>
		<path class="st0" d="M359,83.7c0.1,1.5-5.5,4.1-6.1,1.1c-0.1-0.5,0-1.6,1.1-2.2C355.4,81.7,358.9,82.2,359,83.7z"/>
		<path class="st1" d="M243,342.7c-0.1,0.4-0.4,0.7-0.6,1.1C239.5,343.7,242.2,339.9,243,342.7z"/>
		<path class="st1" d="M129.8,147.8c2-1.1,3.8,1.7,2.5,3.1C130.2,151.3,129.6,148.8,129.8,147.8z"/>
		<path class="st1" d="M124.2,109.3c0,0.5,0.3,0.6,0.3,1.1c-0.5,0.7-1.5,0.5-2-0.3C122.4,109.2,123.4,109.3,124.2,109.3z"/>
		<path class="st0" d="M115.9,125.8c-0.6,1.8-2.2,2.6-3.9,3.3c-0.5-0.4-1-0.9-1.4-1.4C110.7,125.1,114.5,123.1,115.9,125.8z"/>
	</g>
	<g>
	</g>
</g>
</svg>
